<mxfile host="65bd71144e">
    <diagram id="BBlHCQbROx5jdBZEv49D" name="Page-1">
        <mxGraphModel dx="1617" dy="613" grid="1" gridSize="10" guides="1" tooltips="1" connect="1" arrows="1" fold="1" page="1" pageScale="1" pageWidth="850" pageHeight="1100" math="0" shadow="0">
            <root>
                <mxCell id="0"/>
                <mxCell id="1" parent="0"/>
                <mxCell id="59" value="" style="ellipse;shape=doubleEllipse;whiteSpace=wrap;html=1;aspect=fixed;" parent="1" vertex="1">
                    <mxGeometry x="-185.41" y="288.96" width="40" height="40" as="geometry"/>
                </mxCell>
                <mxCell id="3" value="Wonderfull Travel" style="swimlane;whiteSpace=wrap;html=1;" parent="1" vertex="1">
                    <mxGeometry x="10" y="20" width="370" height="650" as="geometry"/>
                </mxCell>
                <mxCell id="4" value="" style="shape=waypoint;sketch=0;fillStyle=solid;size=6;pointerEvents=1;points=[];fillColor=none;resizable=0;rotatable=0;perimeter=centerPerimeter;snapToPoint=1;strokeWidth=7;" parent="3" vertex="1">
                    <mxGeometry x="175" y="30" width="20" height="20" as="geometry"/>
                </mxCell>
                <mxCell id="13" value="Afegir dades client" style="rounded=1;whiteSpace=wrap;html=1;strokeWidth=2;" parent="3" vertex="1">
                    <mxGeometry x="220" y="310" width="80" height="30" as="geometry"/>
                </mxCell>
                <mxCell id="38" value="mostrar reserves" style="rounded=1;whiteSpace=wrap;html=1;strokeWidth=2;" parent="3" vertex="1">
                    <mxGeometry x="130" y="575" width="90" height="40" as="geometry"/>
                </mxCell>
                <mxCell id="51" value="mostrar reserves" style="rounded=1;whiteSpace=wrap;html=1;" parent="3" vertex="1">
                    <mxGeometry x="150" y="200" width="80" height="30" as="geometry"/>
                </mxCell>
                <mxCell id="64" value="" style="endArrow=classic;html=1;entryX=0.25;entryY=1;entryDx=0;entryDy=0;" edge="1" parent="3" target="13">
                    <mxGeometry width="50" height="50" relative="1" as="geometry">
                        <mxPoint x="160" y="530" as="sourcePoint"/>
                        <mxPoint x="-32.190000000000055" y="338.24" as="targetPoint"/>
                        <Array as="points"/>
                    </mxGeometry>
                </mxCell>
                <mxCell id="66" value="Esborrar reserva" style="rounded=1;whiteSpace=wrap;html=1;" vertex="1" parent="3">
                    <mxGeometry x="65" y="380" width="80" height="40" as="geometry"/>
                </mxCell>
                <mxCell id="67" value="" style="endArrow=none;html=1;" edge="1" parent="3">
                    <mxGeometry width="50" height="50" relative="1" as="geometry">
                        <mxPoint x="150" y="270" as="sourcePoint"/>
                        <mxPoint x="230" y="270" as="targetPoint"/>
                    </mxGeometry>
                </mxCell>
                <mxCell id="79" value="" style="endArrow=none;html=1;" edge="1" parent="3">
                    <mxGeometry width="50" height="50" relative="1" as="geometry">
                        <mxPoint x="95" y="529" as="sourcePoint"/>
                        <mxPoint x="175" y="529" as="targetPoint"/>
                    </mxGeometry>
                </mxCell>
                <mxCell id="91" value="" style="rhombus;whiteSpace=wrap;html=1;" vertex="1" parent="3">
                    <mxGeometry x="80" y="310" width="50" height="45" as="geometry"/>
                </mxCell>
                <mxCell id="93" style="edgeStyle=none;html=1;exitX=0.5;exitY=1;exitDx=0;exitDy=0;" edge="1" parent="3" source="91" target="66">
                    <mxGeometry relative="1" as="geometry">
                        <mxPoint x="210" y="290" as="targetPoint"/>
                        <mxPoint x="210" y="250" as="sourcePoint"/>
                    </mxGeometry>
                </mxCell>
                <mxCell id="94" value="" style="rhombus;whiteSpace=wrap;html=1;" vertex="1" parent="3">
                    <mxGeometry x="100" y="460" width="50" height="45" as="geometry"/>
                </mxCell>
                <mxCell id="95" value="" style="endArrow=classic;html=1;exitX=0.5;exitY=0;exitDx=0;exitDy=0;entryX=0.5;entryY=1;entryDx=0;entryDy=0;" edge="1" parent="3" source="94" target="66">
                    <mxGeometry width="50" height="50" relative="1" as="geometry">
                        <mxPoint x="185" y="585" as="sourcePoint"/>
                        <mxPoint x="150" y="540" as="targetPoint"/>
                        <Array as="points"/>
                    </mxGeometry>
                </mxCell>
                <mxCell id="9" value="Controlador" style="swimlane;whiteSpace=wrap;html=1;" parent="1" vertex="1">
                    <mxGeometry x="390" y="20" width="210" height="650" as="geometry"/>
                </mxCell>
                <mxCell id="15" value="Comprobar &lt;br&gt;dades" style="rounded=1;whiteSpace=wrap;html=1;strokeWidth=2;" parent="9" vertex="1">
                    <mxGeometry x="65" y="260" width="90" height="35" as="geometry"/>
                </mxCell>
                <mxCell id="11" value="" style="rhombus;whiteSpace=wrap;html=1;" parent="9" vertex="1">
                    <mxGeometry x="85" y="330" width="50" height="45" as="geometry"/>
                </mxCell>
                <mxCell id="28" value="" style="endArrow=classic;html=1;entryX=0.5;entryY=0;entryDx=0;entryDy=0;exitX=0.5;exitY=1;exitDx=0;exitDy=0;" parent="9" source="15" target="11" edge="1">
                    <mxGeometry width="50" height="50" relative="1" as="geometry">
                        <mxPoint x="10" y="240" as="sourcePoint"/>
                        <mxPoint x="60" y="190" as="targetPoint"/>
                    </mxGeometry>
                </mxCell>
                <mxCell id="37" value="Carregar dades" style="rounded=1;whiteSpace=wrap;html=1;strokeWidth=2;" parent="9" vertex="1">
                    <mxGeometry x="60" y="570" width="100" height="50" as="geometry"/>
                </mxCell>
                <mxCell id="44" value="Comprobar reserves" style="rounded=1;whiteSpace=wrap;html=1;strokeWidth=2;" parent="9" vertex="1">
                    <mxGeometry x="65" y="47" width="90" height="40" as="geometry"/>
                </mxCell>
                <mxCell id="49" value="Carregar dades" style="rounded=1;whiteSpace=wrap;html=1;strokeWidth=2;" parent="9" vertex="1">
                    <mxGeometry x="55" y="137" width="90" height="40" as="geometry"/>
                </mxCell>
                <mxCell id="71" value="Realitzar comanda" style="rounded=1;whiteSpace=wrap;html=1;" vertex="1" parent="9">
                    <mxGeometry x="70" y="420" width="105" height="40" as="geometry"/>
                </mxCell>
                <mxCell id="77" style="edgeStyle=none;html=1;entryX=1;entryY=0.5;entryDx=0;entryDy=0;" edge="1" parent="9" target="37">
                    <mxGeometry relative="1" as="geometry">
                        <mxPoint x="180" y="620" as="targetPoint"/>
                        <mxPoint x="260" y="590" as="sourcePoint"/>
                    </mxGeometry>
                </mxCell>
                <mxCell id="10" value="Modelo" style="swimlane;whiteSpace=wrap;html=1;" parent="1" vertex="1">
                    <mxGeometry x="610" y="20" width="310" height="650" as="geometry"/>
                </mxCell>
                <mxCell id="35" value="Guardar dades a la BDD" style="rounded=1;whiteSpace=wrap;html=1;strokeWidth=2;" parent="10" vertex="1">
                    <mxGeometry x="160" y="335" width="120" height="35" as="geometry"/>
                </mxCell>
                <mxCell id="41" value="llegir reserves BDD" style="rounded=1;whiteSpace=wrap;html=1;strokeWidth=2;" parent="10" vertex="1">
                    <mxGeometry x="50" y="37" width="120" height="60" as="geometry"/>
                </mxCell>
                <mxCell id="42" value="" style="rhombus;whiteSpace=wrap;html=1;strokeWidth=2;" parent="10" vertex="1">
                    <mxGeometry x="90" y="137" width="40" height="40" as="geometry"/>
                </mxCell>
                <mxCell id="43" value="" style="endArrow=classic;html=1;entryX=0.5;entryY=0;entryDx=0;entryDy=0;exitX=0.5;exitY=1;exitDx=0;exitDy=0;" parent="10" source="41" target="42" edge="1">
                    <mxGeometry width="50" height="50" relative="1" as="geometry">
                        <mxPoint x="-140" y="217" as="sourcePoint"/>
                        <mxPoint x="-90" y="167" as="targetPoint"/>
                    </mxGeometry>
                </mxCell>
                <mxCell id="72" value="Esborrar data a la BDD" style="rounded=1;whiteSpace=wrap;html=1;" vertex="1" parent="10">
                    <mxGeometry x="65" y="420" width="90" height="40" as="geometry"/>
                </mxCell>
                <mxCell id="75" value="" style="shape=link;html=1;" edge="1" parent="10">
                    <mxGeometry width="100" relative="1" as="geometry">
                        <mxPoint x="40" y="540" as="sourcePoint"/>
                        <mxPoint x="40" y="620" as="targetPoint"/>
                    </mxGeometry>
                </mxCell>
                <mxCell id="16" value="" style="endArrow=classic;html=1;entryX=0;entryY=0.5;entryDx=0;entryDy=0;exitX=1;exitY=0.5;exitDx=0;exitDy=0;" parent="1" source="13" target="15" edge="1">
                    <mxGeometry width="50" height="50" relative="1" as="geometry">
                        <mxPoint x="300" y="430" as="sourcePoint"/>
                        <mxPoint x="350" y="380" as="targetPoint"/>
                    </mxGeometry>
                </mxCell>
                <mxCell id="19" value="" style="endArrow=classic;html=1;exitX=0;exitY=0.5;exitDx=0;exitDy=0;entryX=0.5;entryY=1;entryDx=0;entryDy=0;" parent="1" source="11" target="13" edge="1">
                    <mxGeometry width="50" height="50" relative="1" as="geometry">
                        <mxPoint x="70" y="417.5" as="sourcePoint"/>
                        <mxPoint x="310" y="480" as="targetPoint"/>
                        <Array as="points">
                            <mxPoint x="270" y="373"/>
                        </Array>
                    </mxGeometry>
                </mxCell>
                <mxCell id="33" value="[dades incorrectes]" style="edgeLabel;html=1;align=center;verticalAlign=middle;resizable=0;points=[];" parent="19" vertex="1" connectable="0">
                    <mxGeometry x="0.2048" relative="1" as="geometry">
                        <mxPoint x="76" y="-18" as="offset"/>
                    </mxGeometry>
                </mxCell>
                <mxCell id="18" value="" style="endArrow=classic;html=1;exitX=1;exitY=0.5;exitDx=0;exitDy=0;" parent="1" source="11" target="35" edge="1">
                    <mxGeometry width="50" height="50" relative="1" as="geometry">
                        <mxPoint x="570" y="422.16" as="sourcePoint"/>
                        <mxPoint x="660" y="407.5" as="targetPoint"/>
                        <Array as="points"/>
                    </mxGeometry>
                </mxCell>
                <mxCell id="32" value="[dades correctes]" style="edgeLabel;html=1;align=center;verticalAlign=middle;resizable=0;points=[];" parent="18" vertex="1" connectable="0">
                    <mxGeometry x="-0.4999" relative="1" as="geometry">
                        <mxPoint x="21" y="-17" as="offset"/>
                    </mxGeometry>
                </mxCell>
                <mxCell id="36" value="" style="endArrow=classic;html=1;" parent="1" source="35" edge="1">
                    <mxGeometry width="50" height="50" relative="1" as="geometry">
                        <mxPoint x="720" y="425" as="sourcePoint"/>
                        <mxPoint x="650" y="620" as="targetPoint"/>
                        <Array as="points">
                            <mxPoint x="830" y="620"/>
                        </Array>
                    </mxGeometry>
                </mxCell>
                <mxCell id="40" value="" style="endArrow=classic;html=1;exitX=0.646;exitY=0.588;exitDx=0;exitDy=0;exitPerimeter=0;" parent="1" source="4" target="44" edge="1">
                    <mxGeometry width="50" height="50" relative="1" as="geometry">
                        <mxPoint x="110" y="60" as="sourcePoint"/>
                        <mxPoint x="450" y="147" as="targetPoint"/>
                        <Array as="points">
                            <mxPoint x="195" y="90"/>
                        </Array>
                    </mxGeometry>
                </mxCell>
                <mxCell id="45" value="" style="endArrow=classic;html=1;entryX=0;entryY=0.5;entryDx=0;entryDy=0;exitX=1;exitY=0.5;exitDx=0;exitDy=0;" parent="1" source="44" target="41" edge="1">
                    <mxGeometry width="50" height="50" relative="1" as="geometry">
                        <mxPoint x="470" y="297" as="sourcePoint"/>
                        <mxPoint x="520" y="247" as="targetPoint"/>
                    </mxGeometry>
                </mxCell>
                <mxCell id="46" value="" style="endArrow=classic;html=1;exitX=0;exitY=0.5;exitDx=0;exitDy=0;entryX=1;entryY=0.5;entryDx=0;entryDy=0;" parent="1" source="42" target="49" edge="1">
                    <mxGeometry width="50" height="50" relative="1" as="geometry">
                        <mxPoint x="620" y="357" as="sourcePoint"/>
                        <mxPoint x="530" y="237" as="targetPoint"/>
                    </mxGeometry>
                </mxCell>
                <mxCell id="48" value="[reserves existents]" style="edgeLabel;html=1;align=center;verticalAlign=middle;resizable=0;points=[];" parent="46" vertex="1" connectable="0">
                    <mxGeometry x="-0.3978" y="2" relative="1" as="geometry">
                        <mxPoint x="-29" y="-2" as="offset"/>
                    </mxGeometry>
                </mxCell>
                <mxCell id="50" value="" style="endArrow=classic;html=1;exitX=0;exitY=0.5;exitDx=0;exitDy=0;" parent="1" source="49" target="51" edge="1">
                    <mxGeometry width="50" height="50" relative="1" as="geometry">
                        <mxPoint x="620" y="370" as="sourcePoint"/>
                        <mxPoint x="340" y="240" as="targetPoint"/>
                        <Array as="points">
                            <mxPoint x="200" y="180"/>
                        </Array>
                    </mxGeometry>
                </mxCell>
                <mxCell id="53" value="" style="endArrow=classic;html=1;exitX=0.5;exitY=1;exitDx=0;exitDy=0;" parent="1" source="42" target="51" edge="1">
                    <mxGeometry width="50" height="50" relative="1" as="geometry">
                        <mxPoint x="620" y="360" as="sourcePoint"/>
                        <mxPoint x="670" y="310" as="targetPoint"/>
                        <Array as="points">
                            <mxPoint x="720" y="240"/>
                        </Array>
                    </mxGeometry>
                </mxCell>
                <mxCell id="54" value="[reserves inexistents]" style="edgeLabel;html=1;align=center;verticalAlign=middle;resizable=0;points=[];" parent="53" connectable="0" vertex="1">
                    <mxGeometry x="-0.5952" y="-1" relative="1" as="geometry">
                        <mxPoint x="31" y="69" as="offset"/>
                    </mxGeometry>
                </mxCell>
                <mxCell id="56" value="" style="endArrow=classic;html=1;entryX=1;entryY=0.5;entryDx=0;entryDy=0;exitX=0;exitY=0.5;exitDx=0;exitDy=0;" parent="1" source="37" target="38" edge="1">
                    <mxGeometry width="50" height="50" relative="1" as="geometry">
                        <mxPoint x="310" y="600" as="sourcePoint"/>
                        <mxPoint x="360" y="550" as="targetPoint"/>
                        <Array as="points"/>
                    </mxGeometry>
                </mxCell>
                <mxCell id="58" value="" style="shape=waypoint;sketch=0;fillStyle=solid;size=6;pointerEvents=1;points=[];fillColor=none;resizable=0;rotatable=0;perimeter=centerPerimeter;snapToPoint=1;strokeWidth=7;" parent="1" vertex="1">
                    <mxGeometry x="-175.41" y="298.96" width="20" height="20" as="geometry"/>
                </mxCell>
                <mxCell id="60" value="" style="line;strokeWidth=2;direction=south;html=1;" parent="1" vertex="1">
                    <mxGeometry x="-80" y="240" width="10" height="160" as="geometry"/>
                </mxCell>
                <mxCell id="61" value="" style="endArrow=classic;html=1;entryX=0.489;entryY=0.219;entryDx=0;entryDy=0;entryPerimeter=0;" parent="1" target="60" edge="1">
                    <mxGeometry width="50" height="50" relative="1" as="geometry">
                        <mxPoint x="120" y="550" as="sourcePoint"/>
                        <mxPoint x="120" y="350" as="targetPoint"/>
                        <Array as="points"/>
                    </mxGeometry>
                </mxCell>
                <mxCell id="62" value="" style="endArrow=classic;html=1;entryX=0.459;entryY=0.579;entryDx=0;entryDy=0;entryPerimeter=0;" parent="1" target="60" edge="1">
                    <mxGeometry width="50" height="50" relative="1" as="geometry">
                        <mxPoint x="200" y="290" as="sourcePoint"/>
                        <mxPoint x="137.80999999999995" y="348.24" as="targetPoint"/>
                        <Array as="points">
                            <mxPoint x="200" y="313"/>
                        </Array>
                    </mxGeometry>
                </mxCell>
                <mxCell id="63" value="" style="endArrow=classic;html=1;entryX=1;entryY=0.5;entryDx=0;entryDy=0;exitX=0.444;exitY=0.177;exitDx=0;exitDy=0;exitPerimeter=0;" parent="1" source="60" target="59" edge="1">
                    <mxGeometry width="50" height="50" relative="1" as="geometry">
                        <mxPoint x="-80" y="309" as="sourcePoint"/>
                        <mxPoint x="132.39999999999995" y="317.2" as="targetPoint"/>
                        <Array as="points"/>
                    </mxGeometry>
                </mxCell>
                <mxCell id="68" style="edgeStyle=none;html=1;exitX=0.5;exitY=1;exitDx=0;exitDy=0;" edge="1" parent="1" source="51">
                    <mxGeometry relative="1" as="geometry">
                        <mxPoint x="200" y="290" as="targetPoint"/>
                    </mxGeometry>
                </mxCell>
                <mxCell id="70" style="edgeStyle=none;html=1;entryX=0.5;entryY=0;entryDx=0;entryDy=0;" edge="1" parent="1" target="13">
                    <mxGeometry relative="1" as="geometry">
                        <mxPoint x="140" y="340" as="targetPoint"/>
                        <mxPoint x="210" y="290" as="sourcePoint"/>
                    </mxGeometry>
                </mxCell>
                <mxCell id="73" style="edgeStyle=none;html=1;entryX=0;entryY=0.5;entryDx=0;entryDy=0;exitX=0.5;exitY=1;exitDx=0;exitDy=0;" edge="1" parent="1" source="66" target="71">
                    <mxGeometry relative="1" as="geometry">
                        <mxPoint x="130" y="340" as="targetPoint"/>
                        <mxPoint x="200" y="300" as="sourcePoint"/>
                        <Array as="points">
                            <mxPoint x="120" y="460"/>
                        </Array>
                    </mxGeometry>
                </mxCell>
                <mxCell id="74" value="" style="endArrow=classic;html=1;exitX=1;exitY=0.5;exitDx=0;exitDy=0;entryX=0;entryY=0.5;entryDx=0;entryDy=0;" edge="1" parent="1" source="71" target="72">
                    <mxGeometry width="50" height="50" relative="1" as="geometry">
                        <mxPoint x="550" y="400" as="sourcePoint"/>
                        <mxPoint x="600" y="350" as="targetPoint"/>
                    </mxGeometry>
                </mxCell>
                <mxCell id="76" value="" style="endArrow=classic;html=1;exitX=0.5;exitY=1;exitDx=0;exitDy=0;" edge="1" parent="1" source="72">
                    <mxGeometry width="50" height="50" relative="1" as="geometry">
                        <mxPoint x="550" y="490" as="sourcePoint"/>
                        <mxPoint x="650" y="600" as="targetPoint"/>
                        <Array as="points">
                            <mxPoint x="720" y="600"/>
                        </Array>
                    </mxGeometry>
                </mxCell>
                <mxCell id="90" value="" style="endArrow=classic;html=1;exitX=0.5;exitY=0;exitDx=0;exitDy=0;" edge="1" parent="1" source="38">
                    <mxGeometry width="50" height="50" relative="1" as="geometry">
                        <mxPoint x="180" y="540" as="sourcePoint"/>
                        <mxPoint x="150" y="550" as="targetPoint"/>
                        <Array as="points"/>
                    </mxGeometry>
                </mxCell>
                <mxCell id="92" style="edgeStyle=none;html=1;entryX=0.5;entryY=0;entryDx=0;entryDy=0;" edge="1" parent="1" target="91">
                    <mxGeometry relative="1" as="geometry">
                        <mxPoint x="210" y="300" as="targetPoint"/>
                        <mxPoint x="200" y="290" as="sourcePoint"/>
                        <Array as="points">
                            <mxPoint x="200" y="330"/>
                        </Array>
                    </mxGeometry>
                </mxCell>
                <mxCell id="96" value="" style="endArrow=classic;html=1;entryX=0.5;entryY=1;entryDx=0;entryDy=0;" edge="1" parent="1" target="94">
                    <mxGeometry width="50" height="50" relative="1" as="geometry">
                        <mxPoint x="140" y="550" as="sourcePoint"/>
                        <mxPoint x="160" y="560" as="targetPoint"/>
                        <Array as="points"/>
                    </mxGeometry>
                </mxCell>
            </root>
        </mxGraphModel>
    </diagram>
</mxfile>